<?xml version="1.0" encoding="UTF-8" standalone="no"?>
<svg
   xmlns:dc="http://purl.org/dc/elements/1.1/"
   xmlns:cc="http://creativecommons.org/ns#"
   xmlns:rdf="http://www.w3.org/1999/02/22-rdf-syntax-ns#"
   xmlns:svg="http://www.w3.org/2000/svg"
   xmlns="http://www.w3.org/2000/svg"
   xmlns:sodipodi="http://sodipodi.sourceforge.net/DTD/sodipodi-0.dtd"
   xmlns:inkscape="http://www.inkscape.org/namespaces/inkscape"
   width="175mm"
   height="175mm"
   viewBox="0 0 175 175"
   version="1.1"
   id="svg8"
   inkscape:version="1.0.1 (c497b03c, 2020-09-10)"
   sodipodi:docname="jdgLogoFinal_transparentBackground.svg">
  <defs
     id="defs2" />
  <sodipodi:namedview
     id="base"
     pagecolor="#ffffff"
     bordercolor="#666666"
     borderopacity="1.0"
     inkscape:pageopacity="0.0"
     inkscape:pageshadow="2"
     inkscape:zoom="0.49497475"
     inkscape:cx="498.14276"
     inkscape:cy="294.04781"
     inkscape:document-units="mm"
     inkscape:current-layer="layer1"
     inkscape:document-rotation="0"
     showgrid="false"
     inkscape:snap-nodes="false"
     inkscape:snap-others="false"
     inkscape:window-width="1252"
     inkscape:window-height="855"
     inkscape:window-x="57"
     inkscape:window-y="23"
     inkscape:window-maximized="0"
     showguides="true"
     inkscape:guide-bbox="true"
     inkscape:pagecheckerboard="true"
     width="175mm" />
  <metadata
     id="metadata5">
    <rdf:RDF>
      <cc:Work
         rdf:about="">
        <dc:format>image/svg+xml</dc:format>
        <dc:type
           rdf:resource="http://purl.org/dc/dcmitype/StillImage" />
        <dc:title></dc:title>
      </cc:Work>
    </rdf:RDF>
  </metadata>
  <g
     inkscape:label="Layer 1"
     inkscape:groupmode="layer"
     id="layer1">
    <g
       id="g875"
       transform="translate(14.432554,-59.333836)">
      <path
         style="fill:#2e1470;fill-opacity:1;fill-rule:evenodd;stroke-width:0.184096"
         id="path20"
         sodipodi:type="arc"
         sodipodi:cx="112.4707"
         sodipodi:cy="125.99024"
         sodipodi:rx="22.325317"
         sodipodi:ry="43.125763"
         sodipodi:start="5.9777003"
         sodipodi:end="5.9752256"
         sodipodi:arc-type="slice"
         transform="rotate(19.396298)"
         d="M 133.76239,113.01992 A 22.325317,43.125763 0 0 1 119.19834,167.1113 22.325317,43.125763 0 0 1 91.187346,139.01144 22.325317,43.125763 0 0 1 105.71673,84.885294 22.325317,43.125763 0 0 1 133.7457,112.91818 l -21.275,13.07206 z" />
      <ellipse
         style="fill:#016492;fill-opacity:1;fill-rule:evenodd;stroke-width:0.200267"
         id="path20-3"
         transform="matrix(0.98911402,-0.14715115,0.24186683,0.97030945,0,0)"
         cx="42.320305"
         cy="168.72812"
         rx="25.933584"
         ry="43.933895" />
      <path
         style="fill:#2e1470;fill-opacity:1;stroke-width:0.264583"
         id="path860"
         sodipodi:type="arc"
         sodipodi:cx="78.448654"
         sodipodi:cy="168.36272"
         sodipodi:rx="3.0238097"
         sodipodi:ry="3.0238097"
         sodipodi:start="5.9777003"
         sodipodi:end="5.975222"
         sodipodi:arc-type="slice"
         d="m 81.332465,167.45329 a 3.0238097,3.0238097 0 0 1 -1.972596,3.79267 3.0238097,3.0238097 0 0 1 -3.793897,-1.97024 3.0238097,3.0238097 0 0 1 1.967895,-3.79512 3.0238097,3.0238097 0 0 1 3.796335,1.96554 l -2.881548,0.91658 z" />
      <path
         style="fill:#016492;fill-opacity:1;stroke-width:0.264583"
         id="path860-0"
         sodipodi:type="arc"
         sodipodi:cx="48.848522"
         sodipodi:cy="164.92349"
         sodipodi:rx="3.0238097"
         sodipodi:ry="3.0238097"
         sodipodi:start="5.9777003"
         sodipodi:end="5.975222"
         sodipodi:arc-type="slice"
         d="m 51.732333,164.01406 a 3.0238097,3.0238097 0 0 1 -1.972596,3.79268 3.0238097,3.0238097 0 0 1 -3.793897,-1.97025 3.0238097,3.0238097 0 0 1 1.967895,-3.79511 3.0238097,3.0238097 0 0 1 3.796335,1.96554 l -2.881548,0.91657 z" />
      <path
         style="fill:#2e1470;fill-opacity:1;stroke-width:0.264583"
         id="path860-5"
         sodipodi:type="arc"
         sodipodi:cx="99.35862"
         sodipodi:cy="165.09389"
         sodipodi:rx="3.0238097"
         sodipodi:ry="3.0238097"
         sodipodi:start="5.9777003"
         sodipodi:end="5.975222"
         sodipodi:arc-type="slice"
         d="m 102.24243,164.18446 a 3.0238097,3.0238097 0 0 1 -1.9726,3.79267 3.0238097,3.0238097 0 0 1 -3.793892,-1.97024 3.0238097,3.0238097 0 0 1 1.967895,-3.79512 3.0238097,3.0238097 0 0 1 3.796337,1.96554 l -2.88155,0.91658 z" />
      <path
         style="fill:#2e1470;fill-opacity:1;stroke-width:0.264583"
         id="path860-9"
         sodipodi:type="arc"
         sodipodi:cx="75.10276"
         sodipodi:cy="128.55664"
         sodipodi:rx="3.0238097"
         sodipodi:ry="3.0238097"
         sodipodi:start="5.9777003"
         sodipodi:end="5.975222"
         sodipodi:arc-type="slice"
         d="m 77.986571,127.64721 a 3.0238097,3.0238097 0 0 1 -1.972596,3.79268 3.0238097,3.0238097 0 0 1 -3.793896,-1.97025 3.0238097,3.0238097 0 0 1 1.967894,-3.79511 3.0238097,3.0238097 0 0 1 3.796336,1.96554 l -2.881549,0.91657 z" />
      <path
         style="fill:#016492;fill-opacity:1;stroke-width:0.264583"
         id="path860-02"
         sodipodi:type="arc"
         sodipodi:cx="52.919373"
         sodipodi:cy="186.55414"
         sodipodi:rx="3.0238097"
         sodipodi:ry="3.0238097"
         sodipodi:start="5.9777003"
         sodipodi:end="5.975222"
         sodipodi:arc-type="slice"
         d="m 55.803183,185.64471 a 3.0238097,3.0238097 0 0 1 -1.972596,3.79268 3.0238097,3.0238097 0 0 1 -3.793896,-1.97025 3.0238097,3.0238097 0 0 1 1.967895,-3.79512 3.0238097,3.0238097 0 0 1 3.796335,1.96555 l -2.881548,0.91657 z" />
      <path
         style="fill:#2e1470;fill-opacity:1;stroke-width:0.264583"
         id="path860-3"
         sodipodi:type="arc"
         sodipodi:cx="90.60437"
         sodipodi:cy="187.6232"
         sodipodi:rx="3.0238097"
         sodipodi:ry="3.0238097"
         sodipodi:start="5.9777003"
         sodipodi:end="5.975222"
         sodipodi:arc-type="slice"
         d="m 93.488181,186.71377 a 3.0238097,3.0238097 0 0 1 -1.972596,3.79268 3.0238097,3.0238097 0 0 1 -3.793897,-1.97025 3.0238097,3.0238097 0 0 1 1.967895,-3.79512 3.0238097,3.0238097 0 0 1 3.796335,1.96555 l -2.881548,0.91657 z" />
      <path
         style="fill:#2e1470;fill-opacity:1;stroke-width:0.264583"
         id="path860-99"
         sodipodi:type="arc"
         sodipodi:cx="67.351906"
         sodipodi:cy="149.67093"
         sodipodi:rx="3.0238097"
         sodipodi:ry="3.0238097"
         sodipodi:start="5.9777003"
         sodipodi:end="5.975222"
         sodipodi:arc-type="slice"
         d="m 70.235717,148.7615 a 3.0238097,3.0238097 0 0 1 -1.972596,3.79268 3.0238097,3.0238097 0 0 1 -3.793897,-1.97025 3.0238097,3.0238097 0 0 1 1.967895,-3.79512 3.0238097,3.0238097 0 0 1 3.796335,1.96555 l -2.881548,0.91657 z" />
      <path
         style="fill:#2e1470;fill-opacity:1;stroke-width:0.264583"
         id="path860-7"
         sodipodi:type="arc"
         sodipodi:cx="87.664413"
         sodipodi:cy="146.19641"
         sodipodi:rx="3.0238097"
         sodipodi:ry="3.0238097"
         sodipodi:start="5.9777003"
         sodipodi:end="5.975222"
         sodipodi:arc-type="slice"
         d="m 90.548224,145.28698 a 3.0238097,3.0238097 0 0 1 -1.972596,3.79268 3.0238097,3.0238097 0 0 1 -3.793896,-1.97025 3.0238097,3.0238097 0 0 1 1.967895,-3.79511 3.0238097,3.0238097 0 0 1 3.796335,1.96554 l -2.881549,0.91657 z" />
      <g
         id="g1089"
         transform="translate(8.5526248,13.630746)">
        <g
           id="g1082">
          <path
             style="fill:none;stroke:#2e1470;stroke-width:0.565;stroke-linecap:butt;stroke-linejoin:miter;stroke-miterlimit:4;stroke-dasharray:none;stroke-opacity:1"
             d="m 52.380981,67.626683 c 9.964099,5.114365 12.324898,21.465361 12.565516,33.668467"
             id="path970"
             sodipodi:nodetypes="cc" />
          <path
             style="fill:none;stroke:#2e1470;stroke-width:0.565;stroke-linecap:butt;stroke-linejoin:miter;stroke-miterlimit:4;stroke-dasharray:none;stroke-opacity:1"
             d="M 65.213764,101.29515 C 66.825305,86.849552 67.934905,72.143541 83.660611,68.174527"
             id="path974"
             sodipodi:nodetypes="cc" />
        </g>
        <path
           style="fill:#2e1470;fill-opacity:1;stroke:#2e1470;stroke-width:0.564999;stroke-miterlimit:4;stroke-dasharray:none;stroke-opacity:1"
           id="path976"
           sodipodi:type="arc"
           sodipodi:cx="51.449383"
           sodipodi:cy="67.619194"
           sodipodi:rx="0.93544334"
           sodipodi:ry="0.8018086"
           sodipodi:start="5.9777003"
           sodipodi:end="5.975222"
           sodipodi:arc-type="slice"
           d="m 52.341516,67.378045 a 0.93544334,0.8018086 0 0 1 -0.610241,1.005685 0.93544334,0.8018086 0 0 1 -1.173676,-0.52244 0.93544334,0.8018086 0 0 1 0.608786,-1.006332 0.93544334,0.8018086 0 0 1 1.174431,0.521193 l -0.891433,0.243043 z" />
        <path
           style="fill:#2e1470;fill-opacity:1;stroke:#2e1470;stroke-width:0.564999;stroke-miterlimit:4;stroke-dasharray:none;stroke-opacity:1"
           id="path976-5"
           sodipodi:type="arc"
           sodipodi:cx="84.433464"
           sodipodi:cy="68.421005"
           sodipodi:rx="0.93544334"
           sodipodi:ry="0.8018086"
           sodipodi:start="5.9777003"
           sodipodi:end="5.975222"
           sodipodi:arc-type="slice"
           d="m 85.325597,68.179857 a 0.93544334,0.8018086 0 0 1 -0.61024,1.005685 0.93544334,0.8018086 0 0 1 -1.173677,-0.522441 0.93544334,0.8018086 0 0 1 0.608786,-1.006332 0.93544334,0.8018086 0 0 1 1.174432,0.521193 l -0.891434,0.243043 z" />
      </g>
    </g>
    <text
       xml:space="preserve"
       style="font-style:normal;font-variant:normal;font-weight:normal;font-stretch:normal;font-size:25.4px;line-height:1.25;font-family:'Reprise Std';-inkscape-font-specification:'Reprise Std';word-spacing:0px;fill:#000000;fill-opacity:1;stroke:none;stroke-width:0.264583"
       x="112.2532"
       y="120.27129"
       id="text1137"><tspan
         id="tspan1135"
         x="112.2532"
         y="120.27129"
         style="font-style:normal;font-variant:normal;font-weight:normal;font-stretch:normal;font-size:25.4px;font-family:'Reprise Std';-inkscape-font-specification:'Reprise Std';stroke-width:0.264583"
         sodipodi:role="line" /></text>
  </g>
</svg>
