<svg width="248" height="441" viewBox="0 0 248 441" fill="none" xmlns="http://www.w3.org/2000/svg">
<g clip-path="url(#clip0)">
<path d="M248.001 406.579V410L245.634 413.421V407.368L248.001 406.579Z" fill="#7E412D"/>
<path d="M24.9712 409.474V413.684L28.1273 415.789L29.1793 410.789L24.9712 409.474Z" fill="#7E412D"/>
<path d="M72.3129 421.579L33.914 409.211C33.914 409.211 26.2869 407.369 24.9718 412.105C24.4458 414.211 25.4978 416.316 27.3389 417.369C34.44 421.579 56.5325 433.684 72.5759 434.211L205.657 434.737C206.183 434.737 206.709 434.737 207.235 434.474C212.758 432.632 248.001 420.263 248.001 410C248.001 403.158 206.183 422.105 206.183 422.105L72.3129 421.579Z" fill="#7E412D"/>
<path d="M72.3126 418.421L33.9138 406.053C33.9138 406.053 26.5496 404.211 24.9716 408.684C24.1826 410.79 25.2346 412.895 27.0756 413.947C34.1768 418.158 56.2693 430.263 72.3126 430.789L206.183 431.316C206.183 431.316 247.737 417.895 247.737 406.579C247.737 399.737 205.92 418.684 205.92 418.684L72.3126 418.421Z" fill="#BC7153"/>
<path d="M86.7779 444.474C86.7779 450.263 82.3068 455 76.5207 455C70.7346 455 66.0005 450.526 66.0005 444.737C66.0005 438.947 70.4716 434.211 76.2577 434.211C82.0438 434.211 86.7779 438.684 86.7779 444.474Z" fill="#17161C"/>
<path d="M204.605 444.474C204.605 450.263 200.134 455 194.348 455C188.562 455 183.828 450.526 183.828 444.737C183.828 438.947 188.299 434.211 194.085 434.211C199.608 434.211 204.342 438.684 204.605 444.474Z" fill="#17161C"/>
<path d="M197.504 444.474C197.504 446.316 195.926 447.895 194.085 448.158C192.244 448.158 190.666 446.579 190.403 444.737C190.403 442.895 191.981 441.316 193.822 441.053C195.663 440.79 197.504 442.632 197.504 444.474Z" fill="#C6C6C6"/>
<path d="M-1.85547 373.947L23.1301 345.789L31.8093 361.052L6.56072 385.263L-1.85547 373.947Z" fill="#E2E2E2"/>
<path d="M0.248962 371.052C0.774975 370.263 0.248962 369.21 -0.540054 368.684C-2.11809 368.158 -5.01115 367.368 -8.95624 367.631C-16.0574 368.421 -17.8984 370.526 -17.8984 370.526L11.2952 428.421C14.4513 426.842 16.0293 423.421 15.5033 419.737L8.40214 388.158L11.0322 382.631C11.2952 382.105 10.7692 381.316 10.2432 381.316H5.24607C4.98307 381.842 -2.90711 377.368 0.248962 371.052Z" fill="#1D1C21"/>
<path d="M11.2187 428.826L-18.0664 370.807L-21.8226 372.705L7.4625 430.724L11.2187 428.826Z" fill="#EFEEED"/>
<path d="M72.8384 183.684L93.3529 309.21C95.1939 322.368 84.1477 333.684 70.9974 331.842C62.8442 330.789 56.2691 325 54.165 316.842L26.8124 214.21C25.4974 209.21 25.4974 203.947 26.5494 198.947L31.2835 175.526L72.8384 183.684Z" fill="#060324"/>
<path d="M54.4277 298.158L8.92773 352.895L30.7572 376.842L85.7254 329.21C94.9306 321.052 95.9827 307.105 87.8295 297.895C79.1503 287.631 63.1069 287.631 54.4277 298.158Z" fill="#060324"/>
<path d="M114.656 409.21L119.653 370.526L137.275 368.684L128.333 405.789L114.656 409.21Z" fill="#E2E2E2"/>
<path d="M115.971 404.474C115.445 403.684 114.393 403.421 113.604 404.21C112.289 405.263 110.448 407.368 108.87 411.316C106.24 417.895 107.292 420.789 107.292 420.789L172.255 421.053C172.255 417.631 169.888 414.474 166.469 413.421L135.171 405.263L131.752 400.263C131.226 399.737 130.437 399.737 130.174 400.526L127.807 405C127.807 405 120.18 410.263 115.971 404.474Z" fill="#1D1C21"/>
<path d="M172.273 421.019L107.311 420.579L107.282 424.79L172.245 425.23L172.273 421.019Z" fill="#EFEEED"/>
<path d="M36.5438 227.895L115.445 213.158L90.9859 165L33.3877 170.526L36.5438 227.895Z" fill="#060324"/>
<path d="M115.446 285.526L110.711 375.789L142.798 381.053L156.211 309.474C158.578 297.368 150.425 285.789 138.327 283.684C125.177 281.053 115.972 272.105 115.446 285.526Z" fill="#060324"/>
<path d="M115.446 213.158L153.845 292.368C158.579 303.158 152.53 315.263 141.22 318.158C133.33 320 124.914 316.579 120.706 309.737L59.6885 213.158H115.446Z" fill="#060324"/>
<path d="M176.725 230L201.185 232.894C202.5 233.158 203.289 233.947 203.552 235.263C203.815 236.579 202.763 237.894 201.448 238.158L194.61 239.21L204.867 250.526C206.182 252.105 205.656 254.21 203.815 255L193.295 259.21C192.506 259.473 191.454 259.473 190.665 258.947C185.405 255.526 170.939 245 164.89 236.052L176.725 230Z" fill="#F9BFA1"/>
<path d="M107.818 103.158L111.237 179.473C111.763 188.947 121.757 195 130.173 190.789C134.908 188.684 140.168 181.052 140.168 176.052L137.538 102.368C137.538 94.2103 130.962 87.6313 122.809 87.6313C114.393 87.3682 107.555 94.4735 107.818 103.158Z" fill="#FC5B5B"/>
<path d="M135.696 168.947L185.142 229.21L169.098 243.158L115.182 188.421C108.607 181.842 111.763 170.526 120.705 168.158C125.439 166.842 132.54 165.526 135.696 168.947Z" fill="#FC5B5B"/>
<path d="M114.13 79.2103C114.13 79.2103 83.6213 70.5261 68.104 81.8419C52.5867 93.1577 19.7109 184.21 19.7109 184.21C19.7109 184.21 41.5404 215.263 103.873 194.737C104.136 193.421 107.555 147.631 107.555 147.631C118.338 136.052 152.792 101.579 130.173 86.0524L114.13 79.2103Z" fill="#FC5B5B"/>
<path d="M109.921 145.263C109.921 145.263 118.338 134.737 128.332 120.263" stroke="#E54141" stroke-width="0.75" stroke-miterlimit="10"/>
<path d="M-8.95659 195.263L7.34977 213.684C8.13879 214.737 8.13879 216.053 7.61278 217.105C6.56075 218.158 5.24573 218.421 3.9307 217.895L-1.85543 214.21V229.474C-1.85543 231.316 -3.95948 232.895 -5.80052 232.105L-16.3207 228.421C-17.1098 227.895 -17.6358 227.105 -17.8988 226.316C-19.7398 220.263 -26.315 201.579 -21.8439 192.105L-8.95659 195.263Z" fill="#F9BFA1"/>
<path d="M74.1533 78.6841L3.66772 107.631C-5.01147 111.316 -7.37852 122.631 -0.540373 129.21C3.14171 132.895 10.7689 136.842 15.766 135L77.3093 109.737C84.9365 107.105 88.8816 98.6841 86.2515 91.0525C83.3585 82.8946 82.0434 75.263 74.1533 78.6841Z" fill="#FC5B5B"/>
<path d="M24.4451 126.316L-4.22254 199.737L-25 192.368L-3.95954 116.052C-1.59249 107.105 9.71676 104.21 16.2919 110.789C19.711 113.947 26.0231 121.842 24.4451 126.316Z" fill="#FC5B5B"/>
<path d="M43.9077 123.421L73.3644 111.316" stroke="#E54141" stroke-width="0.75" stroke-miterlimit="10"/>
<path d="M97.298 76.3156L90.4598 75.7893C90.4598 75.7893 85.9887 92.1051 104.136 96.8419C106.503 97.3682 108.87 97.6314 110.974 97.3683C115.445 96.8419 122.547 94.2104 124.651 83.684L120.969 82.1051L97.298 76.3156Z" fill="#F5BFA1"/>
<path d="M96.5086 78.421L106.24 55.2631L130.436 65.2631L120.705 88.4209C117.812 94.9999 110.185 98.1578 103.61 95.5262C97.0346 92.8946 93.8785 84.9999 96.5086 78.421Z" fill="#F5BFA1"/>
<path d="M107.818 48.9473C107.818 48.9473 98.35 78.9473 121.494 86.5788L127.544 72.1052L107.818 48.9473Z" fill="#E39780"/>
<path d="M161.734 58.9473C160.682 63.421 156.211 66.3158 151.74 65.2631C147.269 64.2105 144.376 59.7368 145.428 55.2631C146.48 50.7894 150.951 47.8947 155.422 48.9473C160.156 49.7368 162.786 54.2105 161.734 58.9473Z" fill="#E39780"/>
<path d="M163.575 32.3683C163.575 32.3683 170.939 48.6841 152.266 52.3683L149.11 49.9999C149.11 49.9999 145.691 33.421 155.422 26.5789L163.575 32.3683Z" fill="#171E21"/>
<path d="M125.703 80.5263L124.914 80.2631C111.5 77.1052 103.347 63.9473 106.503 50.5263L112.815 23.421C113.604 20 117.023 17.8947 120.443 18.6842L152.266 26.0526C158.315 27.3684 162.26 33.6842 160.682 39.7368L155.422 62.1052C152.529 75.2631 139.116 83.6842 125.703 80.5263Z" fill="#F5BFA1"/>
<path d="M134.908 52.8946C134.645 53.9472 133.33 54.4735 132.278 54.2104C131.226 53.9472 130.7 52.6314 130.963 51.5788C131.226 50.5261 132.541 49.9998 133.593 50.263C134.645 50.7893 135.171 51.8419 134.908 52.8946Z" fill="#171E21"/>
<path d="M151.741 56.8419C151.478 57.8946 150.163 58.4209 149.111 58.1577C148.059 57.8946 147.533 56.5788 147.796 55.5262C148.059 54.4735 149.374 53.9472 150.426 54.2104C151.478 54.4735 152.004 55.7893 151.741 56.8419Z" fill="#171E21"/>
<path d="M143.324 57.1051L142.535 62.8946C142.535 62.8946 141.483 65.7893 137.538 63.6841" stroke="#E39780" stroke-width="0.6122" stroke-miterlimit="10" stroke-linecap="round" stroke-linejoin="round"/>
<path d="M128.859 45.2631H129.122L138.064 47.1052C139.116 47.3683 139.905 46.5789 140.168 45.5262C140.431 44.4736 139.642 43.6841 138.59 43.421L130.174 41.842C129.122 41.5789 128.333 42.3683 128.07 43.421C127.807 44.2104 128.07 44.9999 128.859 45.2631Z" fill="#171E21"/>
<path d="M149.374 49.7367H149.637L155.16 50.7893C156.212 51.0525 157.264 50.263 157.264 49.2104C157.527 48.1577 156.738 47.1051 155.686 47.1051L150.163 46.0525C149.111 45.7893 148.059 46.5788 148.059 47.6314C148.059 48.4209 148.585 49.2104 149.374 49.7367Z" fill="#171E21"/>
<path d="M129.648 63.6841C129.648 63.6841 129.385 68.9472 138.59 69.9999" stroke="#E39780" stroke-width="0.6122" stroke-miterlimit="10" stroke-linecap="round" stroke-linejoin="round"/>
<path d="M108.344 46.842C108.344 46.842 122.547 49.2104 126.492 23.1578L113.341 12.6315L112.552 16.3157L108.344 46.842Z" fill="#171E21"/>
<path d="M108.87 44.2104L103.873 42.8946C103.873 42.8946 107.555 27.1052 106.24 22.3683C104.662 16.5788 109.659 -0.263257 121.494 5.26306C124.914 7.10516 128.859 7.89464 132.804 7.36832C133.856 7.10516 134.908 6.84201 135.96 6.57885C142.535 4.21043 147.795 -3.68431 159.893 2.63148C173.307 9.47359 179.093 30.7894 165.679 38.1578C157.526 42.6315 127.281 32.6315 123.335 27.3683L114.656 35.5262L108.87 44.2104Z" fill="#171E21"/>
<path d="M113.867 46.5789C112.815 51.0526 108.344 53.9474 103.873 52.8947C99.4017 51.8421 96.5086 47.3684 97.5606 42.8947C98.6126 38.421 103.084 35.5263 107.555 36.5789C112.026 37.6316 114.919 42.1053 113.867 46.5789Z" fill="#F5BFA1"/>
</g>
<defs>
<clipPath id="clip0">
<rect width="273" height="455" fill="white" transform="translate(-25)"/>
</clipPath>
</defs>
</svg>
