<svg width="17" height="16" viewBox="0 0 17 16" fill="none" xmlns="http://www.w3.org/2000/svg">
<path d="M2.5 12.6667C3.41212 12.1401 4.44678 11.8628 5.5 11.8628C6.55322 11.8628 7.58788 12.1401 8.5 12.6667C9.41212 12.1401 10.4468 11.8628 11.5 11.8628C12.5532 11.8628 13.5879 12.1401 14.5 12.6667" stroke="#6E6E6E" stroke-linecap="round" stroke-linejoin="round"/>
<path d="M2.5 4.00001C3.41212 3.4734 4.44678 3.19617 5.5 3.19617C6.55322 3.19617 7.58788 3.4734 8.5 4.00001C9.41212 3.4734 10.4468 3.19617 11.5 3.19617C12.5532 3.19617 13.5879 3.4734 14.5 4.00001" stroke="#6E6E6E" stroke-linecap="round" stroke-linejoin="round"/>
<path d="M2.5 4V12.6667" stroke="#6E6E6E" stroke-linecap="round" stroke-linejoin="round"/>
<path d="M8.5 4V12.6667" stroke="#6E6E6E" stroke-linecap="round" stroke-linejoin="round"/>
<path d="M14.5 4V12.6667" stroke="#6E6E6E" stroke-linecap="round" stroke-linejoin="round"/>
</svg>
