<svg width="240" height="241" viewBox="0 0 240 241" fill="none" xmlns="http://www.w3.org/2000/svg">
<path d="M13.2929 181.374L96.8928 229.957C98.6647 230.99 101.519 230.99 103.291 229.973L230.318 156.624C232.09 155.607 232.09 153.95 230.318 152.917L146.718 104.334C144.963 103.317 142.108 103.317 140.337 104.334L13.3093 177.666C11.5374 178.7 11.521 180.356 13.2929 181.374Z" fill="#AABAFD"/>
<path d="M112.083 186.311C111.084 186.888 111.089 187.827 112.082 188.404L132.69 200.38C133.682 200.957 135.304 200.963 136.303 200.387L176.913 176.941C177.912 176.364 177.906 175.424 176.914 174.847L156.306 162.871C155.313 162.295 153.691 162.288 152.692 162.865L112.083 186.311Z" fill="#2E4277"/>
<path d="M11.9805 179.536L11.9969 184.426C11.9969 185.083 12.4398 185.755 13.3093 186.264L96.9093 234.847C98.6811 235.864 101.536 235.864 103.307 234.847L230.335 161.514C231.221 161.006 231.664 160.333 231.664 159.644L231.647 154.77C231.647 155.443 231.204 156.116 230.318 156.624L103.291 229.973C101.519 230.99 98.6647 230.99 96.8929 229.957L13.2929 181.374C12.407 180.865 11.9805 180.209 11.9805 179.536Z" fill="#798FFE"/>
<path d="M140.09 7.59852C141.86 6.57655 143.299 7.39692 143.305 9.43096L143.532 98.8004C143.537 100.822 142.107 103.312 140.337 104.334L15.1403 176.609C13.3701 177.631 11.9305 176.799 11.9247 174.777L11.6983 85.4075C11.6925 83.3735 13.1228 80.8961 14.8929 79.8741L140.09 7.59852Z" fill="#1B2A4F"/>
<path d="M8.33594 83.4595L8.56562 172.826C8.56562 173.826 8.92658 174.548 9.50075 174.876L12.8585 176.829C12.2843 176.501 11.9234 175.779 11.9234 174.778L11.6937 85.4123C11.6937 83.3779 13.121 80.9008 14.8928 79.8673L140.09 7.59986C140.976 7.09131 141.78 7.04215 142.371 7.37019L139.013 5.4175C138.439 5.08937 137.618 5.13852 136.732 5.64708L11.535 77.9309C9.76322 78.9481 8.33594 81.4253 8.33594 83.4595Z" fill="#384E85"/>
<path d="M16.2168 84.3176L16.4347 170.654L139.013 99.8902L138.795 13.5538L16.2168 84.3176Z" fill="#384E85"/>
<path d="M16.2168 84.3176L16.2534 98.7987L138.832 28.035L138.795 13.5538L16.2168 84.3176Z" fill="#AABAFD"/>
<path d="M118.584 30.6859C119.766 30.0037 120.726 30.5277 120.73 31.8856C120.734 33.2434 119.779 34.8968 118.598 35.5791C117.436 36.2496 116.476 35.7021 116.472 34.3442C116.468 32.9863 117.422 31.3565 118.584 30.6859Z" fill="white"/>
<path d="M125.409 26.7452C126.571 26.0747 127.531 26.5988 127.535 27.9566C127.539 29.3145 126.585 30.9678 125.423 31.6383C124.241 32.3206 123.281 31.773 123.277 30.4152C123.273 29.0573 124.228 27.4275 125.409 26.7452Z" fill="white"/>
<path d="M132.214 22.8162C133.396 22.1339 134.357 22.658 134.361 24.0159C134.365 25.3737 133.41 27.027 132.228 27.7094C131.047 28.3916 130.086 27.8441 130.082 26.4862C130.078 25.1283 131.033 23.4985 132.214 22.8162Z" fill="white"/>
<path d="M38.9295 175.376L30.9054 180.039L27.4487 178.044L35.4728 173.381L38.9295 175.376Z" fill="#384E85"/>
<path d="M125.269 125.202L117.234 129.871L113.777 127.875L121.812 123.206L125.269 125.202Z" fill="#384E85"/>
<path d="M146.853 112.658L138.818 117.327L135.361 115.332L143.396 110.662L146.853 112.658Z" fill="#384E85"/>
<path d="M132.452 141.858L124.428 146.521L117.293 142.402L125.317 137.739L132.452 141.858Z" fill="#384E85"/>
<path d="M172.029 139.702L163.994 144.372L156.848 140.246L164.883 135.576L172.029 139.702Z" fill="#384E85"/>
<path d="M182.827 133.427L174.792 138.097L158.65 128.777L166.685 124.108L182.827 133.427Z" fill="#384E85"/>
<path d="M155.849 117.852L141.034 126.462L133.888 122.336L148.703 113.726L155.849 117.852Z" fill="#384E85"/>
<path d="M138.282 128.061L130.247 132.73L123.101 128.604L131.136 123.935L138.282 128.061Z" fill="#384E85"/>
<path d="M164.835 123.039L146.002 133.984L138.867 129.865L157.7 118.92L164.835 123.039Z" fill="#384E85"/>
<path d="M143.25 135.583L135.214 140.252L128.08 136.133L136.115 131.464L143.25 135.583Z" fill="#384E85"/>
<path d="M152.246 140.777L144.211 145.446L137.065 141.321L145.1 136.651L152.246 140.777Z" fill="#384E85"/>
<path d="M127.484 134.336L119.449 139.005L112.303 134.88L120.338 130.21L127.484 134.336Z" fill="#384E85"/>
<path d="M114.471 131.477L106.446 136.14L102.99 134.144L111.014 129.481L114.471 131.477Z" fill="#384E85"/>
<path d="M103.684 137.745L95.649 142.415L92.1924 140.419L100.227 135.75L103.684 137.745Z" fill="#384E85"/>
<path d="M109.077 165.864L101.041 170.534L93.8955 166.408L101.931 161.739L109.077 165.864Z" fill="#384E85"/>
<path d="M92.886 144.02L84.8619 148.683L81.4053 146.688L89.4294 142.024L92.886 144.02Z" fill="#384E85"/>
<path d="M105.9 146.879L97.876 151.542L90.73 147.417L98.7541 142.754L105.9 146.879Z" fill="#384E85"/>
<path d="M82.0992 150.289L74.064 154.958L70.6074 152.963L78.6426 148.293L82.0992 150.289Z" fill="#384E85"/>
<path d="M95.1132 153.148L87.0781 157.818L79.9321 153.692L87.9672 149.022L95.1132 153.148Z" fill="#384E85"/>
<path d="M110.867 154.402L102.843 159.065L95.7085 154.945L103.733 150.282L110.867 154.402Z" fill="#384E85"/>
<path d="M71.312 156.557L63.2769 161.227L59.8203 159.231L67.8554 154.562L71.312 156.557Z" fill="#384E85"/>
<path d="M84.3261 159.417L76.291 164.086L69.145 159.96L77.1801 155.291L84.3261 159.417Z" fill="#384E85"/>
<path d="M119.863 159.596L111.839 164.259L104.693 160.133L112.717 155.47L119.863 159.596Z" fill="#384E85"/>
<path d="M100.08 160.67L92.045 165.34L84.9102 161.221L92.9453 156.551L100.08 160.67Z" fill="#384E85"/>
<path d="M60.5147 162.832L52.4796 167.502L49.0229 165.506L57.0581 160.837L60.5147 162.832Z" fill="#384E85"/>
<path d="M73.5283 165.692L65.4931 170.361L58.3472 166.236L66.3823 161.566L73.5283 165.692Z" fill="#384E85"/>
<path d="M89.2934 166.939L81.2583 171.608L74.1235 167.489L82.1586 162.82L89.2934 166.939Z" fill="#384E85"/>
<path d="M62.7416 171.96L54.7065 176.63L47.5605 172.504L55.5957 167.835L62.7416 171.96Z" fill="#384E85"/>
<path d="M98.2895 172.133L90.2544 176.802L83.1084 172.677L91.1436 168.007L98.2895 172.133Z" fill="#384E85"/>
<path d="M78.4956 173.214L70.4605 177.884L63.3257 173.764L71.3608 169.095L78.4956 173.214Z" fill="#384E85"/>
<path d="M87.4921 178.408L79.457 183.078L72.311 178.952L80.3462 174.282L87.4921 178.408Z" fill="#384E85"/>
<path d="M129.322 164.521L88.4526 188.271L81.3066 184.146L122.176 160.395L129.322 164.521Z" fill="#384E85"/>
<path d="M76.705 184.676L68.6699 189.346L61.5239 185.22L69.559 180.551L76.705 184.676Z" fill="#384E85"/>
<path d="M67.7088 179.483L48.8868 190.421L41.752 186.302L60.574 175.363L67.7088 179.483Z" fill="#384E85"/>
<path d="M65.9069 190.951L57.8828 195.615L50.7368 191.489L58.7609 186.826L65.9069 190.951Z" fill="#384E85"/>
<path d="M85.7013 189.871L66.8793 200.809L59.7334 196.683L78.5554 185.745L85.7013 189.871Z" fill="#384E85"/>
<path d="M49.7271 169.101L41.692 173.771L38.2354 171.775L46.2705 167.105L49.7271 169.101Z" fill="#384E85"/>
<path d="M136.056 118.933L128.021 123.602L124.564 121.607L132.599 116.937L136.056 118.933Z" fill="#384E85"/>
<path d="M116.698 140.604L108.663 145.274L101.517 141.148L109.552 136.479L116.698 140.604Z" fill="#384E85"/>
<path d="M139.657 158.515L131.622 163.184L124.476 159.058L132.511 154.389L139.657 158.515Z" fill="#384E85"/>
<path d="M130.662 153.321L122.626 157.99L115.48 153.864L123.516 149.195L130.662 153.321Z" fill="#384E85"/>
<path d="M121.665 148.127L113.63 152.796L106.495 148.677L114.53 144.007L121.665 148.127Z" fill="#384E85"/>
<path d="M161.242 145.971L153.207 150.64L146.061 146.515L154.096 141.845L161.242 145.971Z" fill="#384E85"/>
<path d="M150.444 152.246L142.42 156.909L135.274 152.783L143.298 148.12L150.444 152.246Z" fill="#384E85"/>
<path d="M51.943 178.235L39.9013 185.233L32.7554 181.108L44.797 174.11L51.943 178.235Z" fill="#384E85"/>
<path d="M27.6114 107.138C29.1672 106.24 30.0858 106.436 30.7432 107.032L29.8601 108.464C29.2953 107.894 28.5703 107.941 27.6846 108.452C25.8823 109.493 24.7393 111.757 24.7455 113.934C24.7516 116.102 25.9038 117.059 27.706 116.019C28.5917 115.507 29.3146 114.691 29.8743 113.49L30.7627 113.908C30.1108 115.269 29.1963 116.523 27.6405 117.422C25.0989 118.889 23.3827 117.628 23.3745 114.726C23.3663 111.823 25.0698 108.605 27.6114 107.138Z" fill="#D9DDF6"/>
<path d="M33.3413 111.852C33.8651 111.55 34.3132 111.805 34.3149 112.407C34.3166 113.018 33.8713 113.78 33.3476 114.082C32.8162 114.389 32.3758 114.138 32.374 113.528C32.3723 112.926 32.8099 112.159 33.3413 111.852Z" fill="#D9DDF6"/>
<path d="M34.0062 105.453C34.3858 104.8 34.3868 104.092 34.0084 103.872C33.6301 103.653 33.0157 104.004 32.6361 104.657C32.2565 105.31 32.2554 106.018 32.6338 106.238C33.0121 106.458 33.6266 106.107 34.0062 105.453Z" fill="#D9DDF6"/>
<path d="M36.2878 98.228L40.5106 110.15L39.4708 110.751L35.248 98.8283L36.2878 98.228Z" fill="#D9DDF6"/>
<path d="M44.5173 92.1028L51.8888 96.3125L44.5652 109.006L43.383 108.333L49.5475 97.6643L43.3428 94.1372L44.5173 92.1028Z" fill="#D9DDF6"/>
<path d="M60.1207 96.3292L60.1297 99.4975L52.4201 103.949L52.4111 100.78L60.1207 96.3292Z" fill="#D9DDF6"/>
</svg>
